<svg xmlns="http://www.w3.org/2000/svg" width="262" height="262" viewBox="0 0 262 262"><path d="M69.642 25.325C29.648 49.315-3.113 99.18 14.648 164.06c9.068 33.13 31.563 60.242 59.993 75.616 31.49 17.023 75.81 18.423 109.99 1.875 43.01-20.82 81.86-76.54 63.75-143.1-8.15-29.94-22.55-47.88-43.12-64.37-19.04-15.26-49.8-27.46-83.12-25-20.91 1.54-38.26 7.71-52.49 16.25zm49.994-20.622c49.444-4.062 84.827 16.17 107.49 41.87 17.005 19.288 34.896 53.403 31.87 94.99-3.22 44.25-26.797 74.084-56.87 94.364-32.232 21.73-77.256 29.258-118.735 13.124-36.45-14.18-61.94-42.54-73.74-77.49-6.74-19.97-8.14-43.33-3.75-65.61 4.39-22.26 13.22-38.96 23.13-51.87 13.58-17.7 35.49-34.8 61.24-43.12 8.51-2.76 17.36-5.26 29.37-6.25z"/><path d="M115.262 16.58c13.615-3.41 15.77 10.055 23.748 14.373 1.205-4.964 1.912-14.828-4.375-14.373 2.095-1.446 6.864-.22 9.997-.625-1.476 1.222-3.45 1.957-4.368 3.75v17.5c-2.52.702-6.37-5.123-9.374-8.125-3.458-3.463-7.534-6.678-9.992-10-.78 6.202-2.854 19.098 5 18.746-2.3 1.446-7.278.22-10.624.626.725-1.98 3.876-1.54 4.375-3.75v-16.25c-.57-1.514-2.51-1.655-4.38-1.874l-.01.002zm121.86 101.86c-4.996.395-3.347-6.2-3.746-8.122-9.392-45.054-41.637-74.285-88.118-83.74-1.062.228-1.177-.488-1.25-1.25.507-.12.625-.63 1.25-.626 39.82 5.913 67.14 27.027 82.493 58.746 4.87 10.055 11.16 21.804 9.38 34.992z"/><path d="M115.887 25.328c-6.605 3.255-13.703 4.075-19.997 6.25-35.945 12.412-59.22 42-68.118 82.49-5.686-1.867-.798-11.19.624-15.623 12.054-37.55 44.733-66.916 87.49-73.117zm73.116 91.864c.355 1.3 1.785 2.02.626 3.125-14.33-3.17-23.13-11.875-31.87-20.623 1.86 5.014 4.59 9.156 6.24 14.373-5.54-5.788-13.63-16.328-11.25-22.497.49-2.782-3.35-1.23-3.13-3.75 6.35-.55 12.94 3.652 15.62-1.875-3.43.988-5.32 2.48-8.75.625-.46-1.705 1.24-1.257 1.25-2.5-3.4-.076-6.14 3.188-9.38 1.25 10.81-4.183 16.34-13.655 25.62-19.374-1.45 2.296-3.35 4.147-5 6.25 2.65-.07 5.9-4.928 8.75-6.874 1.12 1.984-3.01 4.057-3.75 6.25 1.76.075 5.88-2.854 8.12-4.375 1.23 2.296-4.29 3.19-4.38 6.25 2.14-.362 2.91-2.09 5.62-1.876-2.04 4.01-8.14 3.95-10.62 7.5 3.27.15 4.06-2.18 7.5-1.87-.76 4.66-7.53 3.31-9.38 6.88 1.45.6 5.04-2.02 8.12-1.87-2.18 4.9-9.91 4.25-14.37 6.88 5.4 1.85 10.69-1.8 16.87-1.25-2.58 2.42-7.89 2.11-11.88 3.13 7.17 2.58 11.95-2.62 19.37-1.87-2.45 3.17-9.2 2.05-12.5 4.38 4.95 1.95 11.88-2.59 17.5 0-2.32 3.1-11.41-.58-13.75 2.5 2.72 1.45 8.12.22 11.87.63-2.45 3.17-11.8-.55-14.37 2.5 2.96 2.25 12.05-1.64 13.12 2.5-4.06-1.47-7.89.21-12.5 0-1.69.56 1.32 1.51 1.87 1.87-4.04 2.15-7.42-1.74-12.5-.62 3.93 3.98 10.52 5.31 16.88 6.87.77 2.03-2.02.48-1.25 2.5 3.35 1.86 8.41 2 10 5.63-.88 1.63-3.24-.45-4.38-.62v.01zM144.63 95.318c2.75.38 4.904 1.352 5.63 3.75-2.71-.416-5.142-1.11-5.63-3.75zm7.504 6.252c4.61 4.554 8.466 9.864 9.997 17.497-5.65-3.09-8.71-12.115-9.99-17.49v-.007zm-11.252 3.122c2.067 1.268 3.172 3.5 3.75 6.25-2.32-.783-6.363-4.453-3.75-6.25zm-2.497 3.127c3.07 1.51 5.36 3.8 6.873 6.87-3.84-.75-6.13-3.04-6.873-6.88z"/><path d="M164.63 110.318c4.78 3.97 8.145 9.355 10.626 15.624-6.203-2.546-8.123-9.377-10.626-15.624zm-18.12 5c2.736 4.76 5.07 9.928 4.997 17.497-2.87-4.627-5.11-9.884-4.998-17.498zm-3.75 3.122c4.12-.36 3.852 9.06 5.623 13.125-3.89.132-3.325-9.587-5.622-13.123v-.002zm80.617 0c2 .498 1.412 3.59 3.123 4.377 6.608-1.098 18.528 3.11 18.748-4.376 1.456 6.47.21 15.63.627 23.13h-8.126c4.83-2.24 8.56-5.6 7.49-13.74-2.31-1.44-7.28-.21-10.62-.62.1 4.49 2.48 6.69 6.87 6.88-3.34 1.45-9.37.23-13.75.63 2.84-1.53 6.72-2.02 6.25-6.87-1.69-1.43-6.03-.22-8.75-.62-2.53 7.33 1.37 13.63 7.5 14.37-1.8 1.15-7.54.9-9.38 0v-23.13zm-184.358 5c-6.21 4.834-17.81 4.275-21.88 11.25-1.45-2.51-.22-7.7-.63-11.25 1.38.505.81 2.94 2.5 3.125 8.04-.39 13.35-8.5 19.99-3.125zm124.36-1.248c4.16 2.706 5.19 8.552 8.12 12.5-6.24 1.852-6.55-7.616-8.13-12.5zm-11.88 2.5c2.77-.683 4.11 5.458 4.37 9.372-2.79-1.79-2.7-6.475-4.38-9.373zm8.12 0c2.52 2.477 2.74 7.257 3.75 11.247-2.99-2.02-4.07-5.93-3.75-11.25zm-3.13 3.75c2.3.405 1.7 3.714 2.5 5.622-2.62-.086-2.56-2.86-2.5-5.623zM32.14 134.69c1.97-1.32 4.77 1.87 7.5 1.874-6.52 4.938-18.756 4.16-22.5 11.874-1.44-2.51-.214-7.697-.62-11.248 2.885 5.563 13.466-1.58 15.625-2.498l-.005-.002zm204.977 10.624c.53-.115.59.243.627.624-8.23 50.102-42.344 83.06-93.118 90.615 12.702-3.275 23.46-6.822 33.752-11.874 29.797-14.62 48.565-41.72 56.874-78.75.888.05 1.776.1 1.877-.63h-.02zm-209.975.624c11.05 48.734 40.655 78.917 89.365 89.99-12.677.605-24.372-4.33-34.372-9.373-29.552-14.9-52.778-42.14-57.493-79.993 1.306.27 1.655-.425 2.5-.618v-.006zm102.49 63.118c7.306-4.3 22.42-5.342 29.367 0-.63 2.487-3.77.603-5.62.626.18 2.674-3.33 1.667-3.12 4.375-2.21-.29-3.42-1.576-5-2.5-.75 2.676-2.25 1.338-5 1.25-1.56.433 1.15 1.665.62 3.126-3.77.637-4.85-1.398-6.87-2.502-2.47-.17-1.91 2.68-4.38 2.51-3.69-2.91-8.27-1.74-11.88 1.25-1.51-.36-1.39-2.35-1.88-3.75-.91.35-3.23-.72-3.13.63-1.36-1.2 1.62-3.34 2.5-4.37-.67-1.62-3.71-.87-4.38-2.5 4.39-5.91 16.3-3.87 18.75 1.88l-.02-.01zM146.51 100.32c6.404 4.43 9.197 12.47 11.873 20.62-4.388-2.27-4.467-8.86-8.122-11.875.48 6.61 5.76 8.408 5.63 15.63-6.7-3.508-7.36-13.045-11.87-18.747 1.98 1.44 2.19-2.2 2.5-5.625v-.007zM19.02 116.562c-1.514.362-1.387 2.36-1.874 3.75-1.437-1.684-.22-6.03-.624-8.748 1.83 2.544 3.82 4.928 7.5 5.625.98 1.57-2.946-1.23-5-.63zm120.615 1.874c3.535 1.052 4.776 9.8 5.623 15.623-3.814-3.27-3.63-10.54-5.618-15.62h-.005zm34.37 13.75c-4.83-2.67-6.87-8.127-8.747-13.75 3.398 4.102 8.063 6.937 8.746 13.75z"/><path d="M124.636 120.943c-.237-2.556 2.248-5.63.625-7.5-.35 2.123-4.87 6.597-.62 7.506v-.01zm-12.5-16.25c-.366 2.343-1.88 3.55 0 5.006 3.493-2.34 7.104-4.56 8.75-8.75-2.63-.95-4.624 4.11-8.75 3.75v-.01zm-8.748-3.117c2.73-.74 9.28-3.87 7.5-5-2.767 1.4-6.982 1.357-7.5 5zm-10-10c8.7-1.285 19.565-1.214 26.875-.625-4.587-1.95-10.72-3.98-16.874-2.5-.34-2.21 2.21-1.53 1.87-3.75-4.64-.04-10.71 7.05-14.38 1.88 1.44-3.13 7.48-1.68 9.37-4.37-4.68-2.23-8.9 1-13.13 1.25 1.11 3.68 5.09 4.49 6.25 8.13zm20.624-32.496c.464-1.022 3.373.746 3.124 2.5.848-.192.518-1.562.626-2.493 1.917 1.208 2.83 3.423 4.375 5 1.305-.363-.9-2.358-.626-3.75 3.01 1.995 4.71 5.297 6.26 8.75 4.02-1.89 5.5 4.99 8.75 7.498 1.84-6.08 1.63-14.203 5-18.748 1.4.27.26 3.082.63 4.375 3.31-1.484 1.65-7.932 5.63-8.75-.04 2.664-1.04 4.375-.62 7.507 1.4-2.77 1.89-6.45 3.13-9.38 1.91 1.96-.77 4.62 0 7.5 1.87-1.47 1.66-5.01 4.37-5.63-.87 5.59-4.08 8.83-4.99 14.37 2.7 1.23 1.89-6.44 5.63-6.25-1.1 3.26-2.49 6.25-3.75 9.37 2.15-.15 2.73-1.86 3.13-3.75.92 8.83-6.2 15.04-10.62 20.63.88 2.24 4.99 1.26 6.26 3.12-.74 1.16-4.57 2.47-.62 3.12-2.24 1.79-4.83-1.39-8.12-.63.67 3.29 3.01 4.9 3.13 8.75-3.41-4.31-7.43 3.23-10 5.62-1.11-1.8-.86-4.97-1.87-6.88-.68-.11-3.96 1.31-5-1.25-.73.93-1.57 1.76-2.5 2.5.7 2.51 3.44-.26 6.25.62-.14 3.06 1.11 4.73.63 8.12 2.03-.06 3.84-.32 5-1.25 1.8 1.12 3.1 2.73 3.75 5-5.53-1.98-5.14 4.54-8.74 6.25-1.44.19-.69-1.81-1.87-1.88-.99 1.31-1.29 3.29-1.24 5.63 2.59-1.17 2.92-4.58 6.88-4.38-.35 3.05.057 5.35 2.5 5.62-.32-2.18-.284-4.73-1.25-6.25 1.278.5 4.4 6.94 4.37 11.25-.02 1.95-.67 4.55-1.88 5.62 16.02 17.1 33.23 33.01 49.37 49.99 1.467-2.49-.03-7.94 1.25-10.62 4.83 7.87 7.917 17.5 11.87 26.24-9.35-3.35-17.54-7.87-26.87-11.25 2.51-1.45 7.7-.22 11.25-.63-15.47-17.03-31.72-33.28-48.743-48.75-2.057 1.49 2.565 7.62-1.255 8.75 4.21 3.34-.453 10.72 3.13 14.37.108 2.19-2.12 2.05-2.5 3.75.19.85 1.56.52 2.5.62.29 2.38-.27 3.9-1.874 4.38.61.84 2.1.81 2.5 1.87-.224 1.86-1 3.17-1.873 4.38.27.92.8-.25 1.877 0 .06 2.56-.08 4.91-2.5 4.99-.1 1.35 2.22.28 3.12.62.67 3.172-1.15 3.85-2.5 5 .066 1.21 2.33-.968 3.13.622.235 2.54-1.707 2.88-2.5 4.38.61 1.757 1.66-.91 2.5.63v7.5c-3.84 1.163-7.18 2.82-10.63 4.37-2.51-.603-3.82-2.42-5.62-3.75.94-2.18.102-6.14 3.75-5.615-.366-2.14-2.09-2.917-1.878-5.63.73-.525 1.68-.823 3.127-.625-3.85-6.19.88-11.995-.624-20 1.01-.18 1.08.59 1.87.626.56-2.01-2.06-.86-1.87-2.5 1.5-7.27.36-11.23.63-18.75-.29-1.33.894-1.19 1.875-1.25-3.46-.82-.77-6.44-.62-5.63-.814-4.66-4.462-5.007-6.87-10.624-1.6 1.11-1.4 4.01-2.5 5.63-1.853-2.92.447-7.04 1.25-9.37-.645-1.99-2.474 3.232-3.123 1.25.05-2.718 3.1-4.88 1.25-7.5-2.723.392-2.11 4.14-5 4.37v-4.37c-5.52 3.23-5.463 12.03-10 16.25-1.68-.74.01-3.26 0-4.378-1.19-1.55-1.7 2.84-4.37 1.87-.213-4.59 3.12-5.628 4.37-8.75-1.72-.66-4.31 3.172-6.25 4.372-1.392-2.46 2.69-4.786 4.38-6.25-.53-1.83-2.01.38-3.122 0 1.79-2.798 6.166-3 7.5-6.247-.56-1.71-2.186 1.11-3.12-.62.9-2.64 3.75-3.33 6.25-4.37-.806-2.732-3.15-3.93-5-5.624-1.278.81-.66 3.51-2.49 3.75-2.1.65-.97-1.94-1.25-3.12-3.81-.27-2.947 4.13-3.12 7.5-1.58-.503-1.59-2.57-2.5-3.75-2.18 2.82-.82 9.18-1.877 13.125-3.92-.51-.79-5.94-1.25-8.75-2.17 3.04-1.31 9.11-3.75 11.87-1.6-2.66.88-6.6 0-10.62-2.08 2.08-1.15 7.19-2.5 10-2.49-3.02.45-10.56 0-15.62 4.04-3.875 9.68-6.15 12.5-11.25-3.77.07-6.84 6.01-11.88 6.87.73-4.27 4.82-5.18 6.88-8.13-4.81.81-6.673 4.56-12.5 4.37 3.39-2.867 8.096-4.41 11.878-6.88-4.3-1.91-8.288 4.91-13.12 2.5 3.2-2.21 7.85-2.98 11.87-4.38-3.818-1.49-11.448 3.77-15.62 0 4.123-1.286 10.6-.23 14.37-1.876-3.32-3.35-10.64 2.37-15 0 2.73-2.06 7.67-1.91 11.25-3.12-3.287-5.25-8.177-8.91-12.5-13.12-8.527 5.61-22.49 2.33-23.12-8.75 9.66 11.75 26.89-6.01 15-15.62 8.902-1.67 15.953 11.27 10.62 20 1.7 5.583 7.01 7.27 14.372 5.623-2.49-2.925-9.91-.92-10.62-5.63 3.71.257 5.89 2.025 10 1.88-1.44-2.31-4.538-2.97-6.25-5 7.49-.41 13.52 6.05 20.62 8.12 1.56-.425-1.16-1.66-.627-3.124 3.06.48 4.45 2.64 6.88 3.75.968-2.03-3.392-4.09-3.75-6.88 7.396 2.19 7.92 11.25 16.25 12.5-7-5.49-12.16-12.835-16.25-21.25 3.438.325 5.65 7.265 9.377 9.374-2.02-7.56-8.69-10.474-10.62-18.12 3.02.95 3.79 4.14 6.25 5.625.83.31.04-2.86-.62-3.12l-.03-.04zm13.75 165.6c1.603 1.733-5.832.32-5.002 5.626.886 5.655 17.956 2.593 18.75 10.624.363 3.696-2.393 7.34-10.626 6.874 1.66-1.266 6.455-.012 6.876-3.75.808-7.128-16.27-2.32-18.124-10.624-.89-3.995 1.23-7.544 8.125-8.75zm1.874 1.25c2.452-2.164 8.968 4.624 10.623-.624 1.44 1.89.22 6.445.62 9.374-2.12-4.55-5.28-8.05-11.24-8.75h-.01z"/><path d="M122.136 246.55c-1.426-.862-.23-4.35-.625-6.245 1.96 2.832 3.63 5.955 8.13 6.247-.34 3.232-6.21-4.175-7.5 0z"/></svg>