<?xml version="1.0" encoding="utf-8"?>
<!-- Generator: Adobe Illustrator 15.1.0, SVG Export Plug-In . SVG Version: 6.00 Build 0)  -->
<!DOCTYPE svg PUBLIC "-//W3C//DTD SVG 1.1//EN" "http://www.w3.org/Graphics/SVG/1.1/DTD/svg11.dtd">
<svg version="1.1" id="Layer_1" xmlns="http://www.w3.org/2000/svg" xmlns:xlink="http://www.w3.org/1999/xlink" x="0px" y="0px"
	 width="262px" height="262px" viewBox="0 0 262 262" enable-background="new 0 0 262 262" xml:space="preserve">
<g>
	<path d="M69.642,25.325C29.648,49.314-3.113,99.181,14.648,164.06c9.068,33.129,31.563,60.242,59.993,75.616
		c31.488,17.023,75.805,18.423,109.988,1.875c43.007-20.82,81.856-76.546,63.744-143.108c-8.148-29.947-22.549-47.886-43.121-64.368
		c-19.043-15.261-49.804-27.461-83.116-24.997C101.226,10.618,83.876,16.782,69.642,25.325L69.642,25.325z M119.636,4.703
		c49.444-4.062,84.827,16.17,107.489,41.87c17.006,19.288,34.897,53.403,31.871,94.989c-3.22,44.25-26.797,74.085-56.87,94.365
		c-32.232,21.73-77.256,29.258-118.735,13.124c-36.455-14.182-61.947-42.546-73.742-77.492c-6.74-19.97-8.145-43.333-3.75-65.617
		c4.392-22.263,13.216-38.958,23.123-51.869c13.577-17.697,35.493-34.797,61.245-43.12C98.773,8.196,107.625,5.69,119.636,4.703
		L119.636,4.703z"/>
	<path d="M115.262,16.58c13.615-3.409,15.771,10.055,23.748,14.373c1.205-4.964,1.912-14.828-4.375-14.373
		c2.095-1.446,6.864-0.221,9.997-0.625c-1.476,1.222-3.45,1.957-4.368,3.75v17.499c-2.521,0.703-6.37-5.122-9.374-8.124
		c-3.458-3.463-7.534-6.678-9.992-10c-0.78,6.202-2.854,19.098,4.999,18.746c-2.299,1.446-7.277,0.22-10.623,0.626
		c0.725-1.981,3.876-1.54,4.375-3.75V18.453c-0.568-1.515-2.507-1.656-4.375-1.875L115.262,16.58z M237.123,118.44
		c-4.997,0.395-3.348-6.201-3.747-8.122c-9.392-45.054-41.637-74.285-88.118-83.741c-1.062,0.229-1.177-0.487-1.25-1.25
		c0.507-0.119,0.625-0.628,1.25-0.625c39.82,5.913,67.14,27.027,82.493,58.746C232.618,93.503,238.902,105.252,237.123,118.44
		L237.123,118.44z"/>
	<path d="M115.887,25.328c-6.605,3.255-13.703,4.075-19.997,6.249c-35.945,12.413-59.22,42.002-68.118,82.491
		c-5.686-1.867-0.798-11.189,0.624-15.623C40.45,60.894,73.129,31.529,115.887,25.328z M189.003,117.192
		c0.355,1.3,1.785,2.019,0.626,3.125c-14.326-3.17-23.121-11.875-31.869-20.623c1.86,5.014,4.592,9.156,6.246,14.373
		c-5.54-5.788-13.624-16.328-11.249-22.497c0.491-2.782-3.351-1.231-3.124-3.75c6.357-0.551,12.946,3.652,15.625-1.875
		c-3.431,0.988-5.32,2.479-8.749,0.625c-0.457-1.705,1.24-1.257,1.251-2.5c-3.393-0.076-6.134,3.188-9.376,1.25
		c10.815-4.183,16.341-13.655,25.621-19.374c-1.451,2.296-3.354,4.147-4.998,6.251c2.649-0.072,5.897-4.929,8.747-6.875
		c1.127,1.984-3.006,4.057-3.749,6.25c1.76,0.075,5.886-2.854,8.125-4.375c1.232,2.296-4.291,3.191-4.376,6.249
		c2.14-0.361,2.91-2.09,5.625-1.875c-2.04,4.001-8.135,3.949-10.622,7.5c3.27,0.146,4.065-2.184,7.499-1.875
		c-0.755,4.658-7.527,3.303-9.374,6.874c1.456,0.597,5.044-2.024,8.124-1.875c-2.184,4.9-9.914,4.25-14.374,6.874
		c5.402,1.851,10.691-1.802,16.874-1.25c-2.574,2.423-7.893,2.104-11.874,3.125c7.174,2.582,11.953-2.627,19.372-1.875
		c-2.451,3.172-9.196,2.052-12.498,4.375c4.95,1.954,11.886-2.593,17.497,0c-2.316,3.097-11.412-0.581-13.748,2.5
		c2.718,1.447,8.119,0.215,11.873,0.625c-2.45,3.171-11.797-0.551-14.372,2.5c2.958,2.25,12.052-1.638,13.124,2.499
		c-4.054-1.466-7.893,0.215-12.499,0c-1.687,0.561,1.319,1.509,1.875,1.873c-4.041,2.151-7.418-1.74-12.499-0.625
		c3.929,3.984,10.52,5.312,16.873,6.875c0.774,2.024-2.02,0.476-1.25,2.5c3.355,1.854,8.418,1.995,10,5.625
		c-0.873,1.626-3.237-0.455-4.376-0.625L189.003,117.192z M144.631,95.318c2.749,0.379,4.903,1.352,5.629,3.75
		C147.551,98.652,145.118,97.958,144.631,95.318L144.631,95.318z M152.134,101.57c4.61,4.554,8.466,9.864,9.997,17.497
		c-5.658-3.089-8.711-12.115-9.997-17.491V101.57z M140.882,104.692c2.067,1.268,3.172,3.499,3.749,6.251
		C142.312,110.159,138.269,106.489,140.882,104.692L140.882,104.692z M138.385,107.819c3.07,1.513,5.359,3.804,6.873,6.874
		C141.418,113.949,139.128,111.658,138.385,107.819z"/>
	<path d="M164.63,110.318c4.779,3.97,8.145,9.355,10.626,15.624C169.053,123.396,167.133,116.565,164.63,110.318z M146.509,115.317
		c2.737,4.762,5.071,9.929,4.998,17.498C148.638,128.188,146.396,122.931,146.509,115.317L146.509,115.317z M142.761,118.44
		c4.118-0.359,3.851,9.059,5.622,13.125c-3.89,0.132-3.325-9.587-5.622-13.123V118.44z M223.377,118.44
		c2.001,0.498,1.412,3.589,3.123,4.377c6.608-1.098,18.528,3.11,18.748-4.376c1.456,6.462,0.21,15.622,0.627,23.129h-8.126
		c4.837-2.244,8.562-5.603,7.499-13.748c-2.305-1.441-7.28-0.213-10.622-0.625c0.099,4.488,2.479,6.69,6.872,6.874
		c-3.341,1.449-9.365,0.222-13.747,0.625c2.846-1.526,6.725-2.023,6.251-6.874c-1.688-1.434-6.028-0.22-8.75-0.625
		c-2.525,7.329,1.367,13.626,7.499,14.373c-1.797,1.144-7.538,0.896-9.374,0V118.44L223.377,118.44z M39.019,123.44
		c-6.208,4.834-17.807,4.275-21.872,11.25c-1.447-2.511-0.215-7.699-0.625-11.25c1.381,0.505,0.814,2.94,2.499,3.125
		C27.062,126.175,32.371,118.065,39.019,123.44L39.019,123.44z M163.383,122.192c4.167,2.706,5.192,8.552,8.124,12.499
		C165.271,136.544,164.959,127.076,163.383,122.192z M151.509,124.691c2.777-0.682,4.113,5.459,4.375,9.373
		C153.093,132.273,153.191,127.589,151.509,124.691z M159.632,124.691c2.523,2.478,2.744,7.258,3.751,11.248
		C160.399,133.924,159.315,130.01,159.632,124.691z M156.507,128.441c2.3,0.406,1.7,3.715,2.499,5.623
		C156.386,133.978,156.454,131.204,156.507,128.441z M32.146,134.69c1.972-1.319,4.771,1.869,7.499,1.874
		c-6.52,4.938-18.755,4.159-22.5,11.874c-1.441-2.51-0.213-7.697-0.618-11.248c2.884,5.563,13.465-1.58,15.624-2.498L32.146,134.69z
		 M237.123,145.314c0.531-0.115,0.59,0.243,0.626,0.624c-8.229,50.102-42.343,83.059-93.117,90.615
		c12.704-3.275,23.462-6.822,33.754-11.874c29.798-14.62,48.566-41.711,56.875-78.741c0.887,0.055,1.775,0.104,1.876-0.624H237.123z
		 M27.147,145.938c11.05,48.734,40.655,78.917,89.365,89.991c-12.677,0.604-24.372-4.332-34.372-9.374
		c-29.552-14.901-52.778-42.141-57.493-79.993c1.306,0.27,1.655-0.425,2.5-0.618V145.938z M129.636,209.056
		c7.307-4.299,22.42-5.342,29.368,0c-0.623,2.487-3.762,0.603-5.617,0.626c0.179,2.674-3.329,1.667-3.122,4.375
		c-2.211-0.291-3.417-1.576-5.001-2.499c-0.744,2.675-2.25,1.337-4.992,1.25c-1.562,0.432,1.157,1.664,0.626,3.125
		c-3.765,0.637-4.845-1.398-6.867-2.502c-2.465-0.171-1.911,2.678-4.375,2.507c-3.692-2.91-8.266-1.74-11.874,1.249
		c-1.513-0.362-1.393-2.356-1.875-3.749c-0.909,0.35-3.23-0.724-3.125,0.626c-1.363-1.201,1.62-3.339,2.5-4.376
		c-0.668-1.618-3.707-0.872-4.375-2.499c4.389-5.916,16.298-3.871,18.748,1.875L129.636,209.056z M146.515,100.319
		c6.403,4.432,9.196,12.47,11.872,20.624c-4.388-2.272-4.467-8.862-8.122-11.875c0.476,6.611,5.758,8.408,5.624,15.63
		c-6.697-3.508-7.365-13.045-11.875-18.747c1.981,1.441,2.187-2.202,2.501-5.625V100.319z M19.021,116.566
		c-1.515,0.362-1.388,2.36-1.875,3.751c-1.437-1.685-0.221-6.03-0.624-8.749c1.829,2.544,3.82,4.928,7.501,5.625
		C25.003,118.764,21.076,115.964,19.021,116.566z M139.635,118.44c3.535,1.053,4.776,9.801,5.623,15.624
		c-3.814-3.265-3.629-10.533-5.618-15.622L139.635,118.44z M174.004,132.189c-4.83-2.667-6.87-8.125-8.746-13.749
		C168.656,122.543,173.321,125.378,174.004,132.189z"/>
	<path d="M124.636,120.943c-0.237-2.556,2.248-5.631,0.625-7.501c-0.35,2.124-4.87,6.598-0.625,7.507V120.943z M112.136,104.693
		c-0.366,2.343-1.88,3.55,0,5.006c3.493-2.336,7.104-4.559,8.75-8.749c-2.631-0.944-4.624,4.112-8.75,3.75V104.693z
		 M103.388,101.576c2.729-0.739,9.279-3.871,7.501-5C108.121,97.975,103.906,97.933,103.388,101.576L103.388,101.576z
		 M93.389,91.576c8.699-1.285,19.564-1.214,26.874-0.625c-4.587-1.953-10.72-3.984-16.874-2.5c-0.338-2.216,2.212-1.534,1.875-3.75
		c-4.639-0.043-10.704,7.044-14.374,1.875c1.447-3.132,7.479-1.684,9.374-4.368c-4.682-2.23-8.896,0.994-13.123,1.25
		c1.113,3.679,5.091,4.488,6.247,8.125L93.389,91.576z M114.012,59.08c0.464-1.022,3.373,0.746,3.124,2.5
		c0.848-0.192,0.518-1.562,0.626-2.493c1.917,1.208,2.83,3.423,4.375,5c1.305-0.363-0.901-2.358-0.626-3.75
		c3.005,1.995,4.706,5.297,6.251,8.749c4.014-1.889,5.494,4.992,8.749,7.499c1.836-6.079,1.626-14.203,4.999-18.748
		c1.398,0.27,0.252,3.082,0.626,4.375c3.304-1.484,1.644-7.932,5.624-8.749c-0.046,2.663-1.046,4.374-0.625,7.506
		c1.396-2.77,1.893-6.441,3.126-9.374c1.908,1.959-0.767,4.623,0,7.505c1.869-1.462,1.656-5.006,4.371-5.625
		c-0.867,5.589-4.084,8.828-4.993,14.374c2.7,1.229,1.889-6.434,5.625-6.249c-1.107,3.267-2.492,6.256-3.75,9.374
		c2.151-0.142,2.728-1.861,3.125-3.75c0.916,8.834-6.2,15.048-10.624,20.629c0.881,2.245,4.985,1.265,6.258,3.125
		c-0.745,1.168-4.568,2.471-0.626,3.125c-2.244,1.797-4.836-1.391-8.124-0.625c0.668,3.289,3.004,4.907,3.125,8.749
		c-3.409-4.303-7.429,3.231-9.999,5.625c-1.115-1.801-0.865-4.963-1.875-6.879c-0.681-0.106-3.962,1.31-5-1.25
		c-0.731,0.931-1.569,1.764-2.5,2.5c0.697,2.514,3.444-0.256,6.249,0.622c-0.141,3.064,1.109,4.734,0.633,8.124
		c2.029-0.053,3.842-0.319,5-1.25c1.794,1.122,3.096,2.732,3.749,5c-5.532-1.974-5.143,4.543-8.742,6.25
		c-1.442,0.192-0.696-1.803-1.875-1.875c-0.987,1.305-1.293,3.288-1.245,5.625c2.584-1.165,2.918-4.581,6.875-4.375
		c-0.351,3.054,0.057,5.355,2.499,5.625c-0.317-2.18-0.283-4.723-1.25-6.249c1.279,0.502,4.401,6.945,4.375,11.249
		c-0.014,1.952-0.67,4.553-1.875,5.623c16.021,17.102,33.229,33.017,49.37,49.996c1.463-2.494-0.032-7.946,1.25-10.625
		c4.831,7.876,7.913,17.499,11.871,26.248c-9.353-3.354-17.544-7.869-26.872-11.249c2.511-1.444,7.7-0.215,11.247-0.625
		c-15.467-17.029-31.715-33.275-48.744-48.744c-2.054,1.494,2.568,7.62-1.252,8.751c4.208,3.337-0.455,10.723,3.129,14.373
		c0.107,2.195-2.117,2.057-2.499,3.749c0.19,0.851,1.562,0.52,2.499,0.629c0.293,2.378-0.269,3.898-1.875,4.374
		c0.61,0.845,2.102,0.81,2.499,1.874c-0.226,1.859-0.999,3.175-1.875,4.378c0.269,0.923,0.798-0.249,1.875,0
		c0.059,2.557-0.085,4.91-2.499,4.995c-0.106,1.355,2.215,0.284,3.12,0.624c0.67,3.174-1.154,3.85-2.501,5.001
		c0.063,1.206,2.328-0.967,3.125,0.623c0.237,2.536-1.705,2.877-2.499,4.376c0.611,1.754,1.662-0.91,2.499,0.625v7.499
		c-3.838,1.164-7.181,2.82-10.627,4.373c-2.515-0.603-3.824-2.42-5.625-3.749c0.94-2.179,0.105-6.143,3.749-5.616
		c-0.362-2.138-2.088-2.913-1.874-5.626c0.728-0.524,1.676-0.822,3.124-0.624c-3.854-6.191,0.877-11.993-0.625-19.998
		c1.013-0.177,1.08,0.59,1.875,0.626c0.552-2.011-2.059-0.859-1.875-2.501c1.498-7.269,0.355-11.227,0.625-18.748
		c-0.291-1.333,0.895-1.192,1.876-1.249c-3.459-0.816-0.769-6.44-0.626-5.625c-0.818-4.659-4.466-5.006-6.874-10.623
		c-1.598,1.107-1.401,4.012-2.5,5.624c-1.855-2.921,0.445-7.039,1.25-9.373c-0.647-1.99-2.476,3.237-3.125,1.249
		c0.05-2.712,3.101-4.874,1.251-7.5c-2.728,0.398-2.11,4.141-5,4.375v-4.375c-5.521,3.228-5.468,12.03-9.999,16.248
		c-1.683-0.738,0.004-3.259,0-4.373c-1.189-1.549-1.702,2.84-4.375,1.875c-0.212-4.589,3.124-5.625,4.375-8.75
		c-1.722-0.657-4.311,3.175-6.25,4.375c-1.398-2.459,2.691-4.785,4.375-6.249c-0.532-1.829-2.01,0.376-3.125,0
		c1.791-2.798,6.165-3.004,7.5-6.247c-0.563-1.712-2.187,1.107-3.124-0.625c0.899-2.643,3.75-3.337,6.249-4.375
		c-0.805-2.733-3.153-3.929-5-5.625c-1.277,0.807-0.66,3.509-2.494,3.75c-2.103,0.645-0.973-1.941-1.25-3.124
		c-3.811-0.27-2.946,4.132-3.123,7.499c-1.583-0.504-1.593-2.571-2.5-3.75c-2.18,2.82-0.82,9.179-1.875,13.124
		c-3.919-0.507-0.788-5.94-1.25-8.749c-2.166,3.04-1.307,9.11-3.75,11.874c-1.598-2.661,0.885-6.598,0-10.622
		c-2.081,2.081-1.144,7.187-2.5,9.999c-2.485-3.023,0.452-10.566,0-15.623c4.045-3.877,9.688-6.149,12.501-11.254
		c-3.771,0.078-6.835,6.01-11.874,6.874c0.731-4.267,4.822-5.177,6.874-8.124c-4.807,0.816-6.675,4.566-12.498,4.374
		c3.388-2.864,8.092-4.406,11.874-6.876c-4.304-1.909-8.288,4.915-13.123,2.5c3.205-2.208,7.854-2.975,11.873-4.375
		c-3.816-1.491-11.446,3.77-15.623,0c4.128-1.285,10.602-0.227,14.373-1.875c-3.316-3.351-10.636,2.365-14.998,0
		c2.73-2.059,7.669-1.91,11.249-3.119c-3.284-5.253-8.174-8.909-12.498-13.124c-8.526,5.607-22.489,2.329-23.123-8.749
		c9.659,11.746,26.894-6.008,14.999-15.623c8.907-1.674,15.958,11.27,10.623,19.998c1.702,5.584,7.01,7.272,14.374,5.624
		c-2.49-2.926-9.914-0.92-10.625-5.628c3.708,0.255,5.895,2.023,9.999,1.878c-1.441-2.308-4.532-2.967-6.249-4.999
		c7.492-0.409,13.521,6.053,20.623,8.12c1.561-0.426-1.157-1.662-0.625-3.125c3.061,0.483,4.447,2.641,6.877,3.75
		c0.965-2.023-3.395-4.083-3.75-6.875c7.393,2.195,7.918,11.25,16.249,12.504c-7.003-5.491-12.16-12.833-16.249-21.248
		c3.435,0.325,5.646,7.265,9.374,9.374c-2.017-7.562-8.689-10.474-10.624-18.123c3.011,0.952,3.781,4.141,6.25,5.628
		c0.827,0.306,0.04-2.861-0.623-3.121L114.012,59.08z M127.761,224.681c1.604,1.732-5.831,0.32-5.001,5.625
		c0.886,5.655,17.956,2.593,18.749,10.624c0.364,3.696-2.392,7.341-10.625,6.874c1.659-1.266,6.455-0.012,6.876-3.75
		c0.808-7.128-16.27-2.32-18.124-10.624C118.745,229.435,120.865,225.886,127.761,224.681L127.761,224.681z M129.636,225.929
		c2.452-2.163,8.968,4.625,10.623-0.623c1.441,1.89,0.22,6.445,0.624,9.374c-2.117-4.55-5.277-8.049-11.242-8.751H129.636z"/>
	<path d="M122.136,246.551c-1.426-0.863-0.231-4.35-0.625-6.246c1.959,2.832,3.624,5.955,8.125,6.247
		C129.294,249.784,123.427,242.377,122.136,246.551L122.136,246.551z"/>
</g>
</svg>
