<?xml version="1.0" encoding="utf-8"?>
<!-- Generator: Adobe Illustrator 15.1.0, SVG Export Plug-In . SVG Version: 6.00 Build 0)  -->
<!DOCTYPE svg PUBLIC "-//W3C//DTD SVG 1.1//EN" "http://www.w3.org/Graphics/SVG/1.1/DTD/svg11.dtd">
<svg version="1.1" id="Layer_1" xmlns="http://www.w3.org/2000/svg" xmlns:xlink="http://www.w3.org/1999/xlink" x="0px" y="0px"
	 width="524px" height="524px" viewBox="0 0 524 524" enable-background="new 0 0 524 524" xml:space="preserve">
<g>
	<path d="M297.706,0c20.54,5.563,40.853,11.358,61.6,16.722c-1.313,8.953-4.138,16.396-6.164,24.64
		c0.943-22.647-12.518-30.894-31.68-33.44c-3.068,7.196-4.955,15.576-7.04,23.76c8.382,7.462,19.266-2.167,21.12-9.68
		c0.23,10.207-5.404,22.162-7.92,32.56c-0.687-10.462-3.05-19.247-13.2-20.242c-4.922,9.35-11.855,31.1,5.282,31.68
		c-11.945-0.086-24.835-6.842-37.84-8.797c0.319-3.352,7.995,1.15,10.56-1.76c4.405-3.168,6.266-13.026,8.8-22.002
		C305.36,18.801,311.538,4.561,297.706,0L297.706,0z M209.706,32.56c-3.488,2.68-7.216,5.108-9.686,8.802
		c-3.952,21.32,22.374,23.38,32.564,13.2c-7.333-7.628-14.37-15.55-22.88-22.002H209.706z M211.466,8.802
		c-1.413,7.314,6.88,10.542,10.557,14.96C236.643,15.852,214.398-6.415,211.466,8.802L211.466,8.802z M222.903,25.522
		c6.245,5.78,12.216,11.833,19.36,16.72c7.31-5.393,9.972-24.777-7.04-21.122c8.313-2.832,18.578-3.716,28.16-5.28
		c-11.305,4.243-13.343,17.75-19.36,27.28c5.448,10.34,27.31,9.68,22.878-8.8c7.75,17.607-17.48,32.27-31.67,20.24
		c-9.33,8.11-32.06,15.68-45.76,6.16c-7.07-17.618,10.7-24.087,21.12-29.92c-8.12-10.353-4.92-32.94,14.08-29.04
		c9.36,5.22,7.53,19.886-1.76,23.76L222.903,25.522z M372.503,22.88c12.588,5.89,22.213,14.75,34.32,21.123
		c-22.19-12.944-32.15,29.318-43.12,40.478c9.123,13.35,36.13,14.91,45.76,0.88c-0.56,7.37-9.399,14.06-12.32,22
		c-19.5-11-38.43-22.58-55.439-36.08c11.89,9.83,18.64-4.8,25.52-15.84C374.831,43.241,386.743,31.631,372.503,22.88L372.503,22.88z
		 M159.543,75.682c-0.584-19.227-26.538-12.935-36.078-2.643c4.71,8.78,9.1,17.88,16.717,23.76c7.41-6.65,19.742-8.55,19.36-21.12
		L159.543,75.682z M141.063,54.562c2.263-20.736-26.056-15.81-32.56-2.64c3.76,7.382,9.12,13.173,13.2,20.24
		C129.078,66.885,140.007,64.229,141.063,54.562z M143.703,58.959c19.032-10.34,35.842,5.46,21.12,22
		c-10.598,11.9-35.68,22.34-44.88,31.68c-0.334-3.49,4.627-4.29,5.277-8.8c0.962-6.64-21.32-40.99-28.157-42.24
		c-5.437-1-7.615,3.18-10.562,2.64c13.71-4.67,35.74-35.59,57.21-30.8c11.99,2.67,6.59,18.16,0,25.51L143.703,58.959z
		 M174.503,109.999c-56.317,33.78-102.45,104-77.44,195.36c12.77,46.649,44.447,84.83,84.48,106.479
		c44.34,23.97,106.745,25.94,154.88,2.64c60.561-29.319,115.266-107.789,89.762-201.52c-11.475-42.17-31.753-67.43-60.722-90.64
		c-26.814-21.49-70.13-38.67-117.04-35.2C218.978,89.289,194.548,97.969,174.503,109.999L174.503,109.999z M244.903,80.959
		c69.625-5.72,119.451,22.77,151.36,58.96c23.948,27.16,49.145,75.2,44.88,133.76c-4.532,62.311-37.734,104.32-80.08,132.88
		c-45.39,30.601-108.79,41.2-167.2,18.48c-51.333-19.97-87.23-59.91-103.84-109.12c-9.49-28.12-11.47-61.02-5.28-92.4
		c6.185-31.35,18.61-54.86,32.56-73.04c19.12-24.92,49.98-49,86.243-60.72C215.526,85.879,227.989,82.349,244.903,80.959
		L244.903,80.959z M469.303,106.479c-5.359-31.59-63.623-2.02-53.68,24.64c13.104,27.56,57.62-1.43,53.68-24.65V106.479z
		 M433.223,84.479c31.333-4.89,55.734,36.28,34.32,58.96c-29.38,31.12-79.203-25-49.28-52.8
		C421.949,87.209,425.966,85.609,433.223,84.479z"/>
	<path d="M238.743,97.683c19.172-4.8,22.21,14.16,33.439,20.24c1.698-6.99,2.695-20.88-6.159-20.24
		c2.951-2.036,9.667-0.31,14.077-0.88c-2.079,1.72-4.859,2.755-6.149,5.28v24.64c-3.55,0.99-8.97-7.212-13.2-11.44
		c-4.87-4.876-10.61-9.403-14.07-14.08c-1.1,8.732-4.02,26.893,7.04,26.397c-3.24,2.036-10.25,0.31-14.96,0.882
		c1.02-2.79,5.46-2.168,6.16-5.28v-22.88c-0.8-2.133-3.53-2.332-6.16-2.64L238.743,97.683z M410.343,241.12
		c-7.036,0.555-4.715-8.732-5.276-11.438c-13.225-63.443-58.631-104.605-124.084-117.92c-1.496,0.323-1.657-0.687-1.761-1.76
		c0.715-0.168,0.88-0.885,1.761-0.88c56.074,8.326,94.542,38.057,116.162,82.722c6.854,14.16,15.704,30.704,13.2,49.277
		L410.343,241.12z"/>
	<path d="M239.623,110.002c-9.3,4.583-19.294,5.738-28.158,8.8c-50.616,17.479-83.39,59.145-95.92,116.16
		c-8.008-2.63-1.123-15.757,0.878-22C133.396,160.084,179.413,118.735,239.623,110.002z M491.305,132.88
		c5.206,7.997,7.061,19.343,10.559,29.042c-3.195-0.613-2.011-5.61-6.16-5.28c-13.175,6.18-23.112,15.606-33.438,24.64
		c17.591,0.457,42.278,9.265,40.48-14.082c4.59,9.194,6.937,20.64,10.56,30.803c-3.277-1.71-2.614-7.357-7.04-7.92
		c-13.048,6.316-22.325,16.396-33.437,24.64c12.738,0.728,29.97,4.44,41.359,0.88c0.604-2.082,2.03-7.873,0-9.68
		c4.178,1.99,5.778,14.157,7.916,21.118c-11.603-14.2-43.588-8.03-66-11.43c6.907-11.6,25.396-19.17,35.2-30.8
		c-15.427-1.29-31.584-1.86-46.64-3.52c5.353-7.38,14.785-12.67,24.64-20.24c8.65-6.64,24.725-15.15,22-28.16L491.305,132.88z
		 M19.623,159.282c6.864,2.23,14.51,3.676,21.12,6.16c-19.818,0.127-27.838,12.056-29.92,29.92
		c7.186,4.256,16.853,6.028,26.402,7.92c6.654-12.227-6.33-18.48-12.323-23.76c11.57,4.856,26.854,6,36.96,12.322
		c-11.414-2.79-22.222,1.53-22.88,12.32c8.04,2.816,16.642,5.065,25.52,7.04c9.31-16.577,2.237-37.9-11.44-44.004
		c7.824,1.856,14.84,4.522,22.88,6.16c-5.346,21.643-9.93,44.044-18.48,62.48c5.633-14.586-8.624-15.83-23.76-20.24
		c-15.047-4.383-27.044-10.196-29.92,4.4C5.906,200.125,14.554,179.146,19.623,159.282L19.623,159.282z M342.583,239.362
		c0.498,1.83,2.515,2.842,0.88,4.4c-20.173-4.464-32.556-16.722-44.877-29.04c2.62,7.06,6.466,12.893,8.797,20.24
		c-7.8-8.15-19.184-22.992-15.84-31.68c0.69-3.917-4.72-1.733-4.398-5.28c8.95-0.775,18.23,5.143,22-2.64
		c-4.829,1.392-7.492,3.49-12.319,0.88c-0.644-2.4,1.747-1.77,1.762-3.52c-4.777-0.106-8.638,4.49-13.204,1.76
		c15.232-5.89,23.013-19.228,36.08-27.282c-2.044,3.234-4.724,5.84-7.04,8.802c3.73-0.1,8.305-6.94,12.32-9.68
		c1.586,2.793-4.232,5.712-5.28,8.8c2.477,0.105,8.286-4.02,11.44-6.16c1.735,3.233-6.043,4.494-6.16,8.8
		c3.01-0.51,4.098-2.944,7.92-2.64c-2.872,5.634-11.454,5.56-14.958,10.56c4.604,0.206,5.727-3.075,10.56-2.64
		c-1.063,6.56-10.6,4.652-13.2,9.68c2.051,0.84,7.104-2.85,11.44-2.64c-3.073,6.9-13.96,5.984-20.24,9.68
		c7.606,2.607,15.056-2.538,23.761-1.76c-3.625,3.413-11.115,2.963-16.721,4.4c10.101,3.635,16.83-3.7,27.28-2.64
		c-3.454,4.467-12.95,2.89-17.602,6.16c6.972,2.752,16.737-3.65,24.64,0c-3.263,4.362-16.07-0.818-19.36,3.52
		c3.827,2.038,11.435,0.303,16.721,0.88c-3.45,4.465-16.612-0.776-20.238,3.52c4.164,3.17,16.97-2.305,18.481,3.52
		c-5.71-2.064-11.116,0.303-17.604,0c-2.374,0.79,1.858,2.124,2.642,2.637c-5.689,3.03-10.445-2.45-17.6-0.88
		c5.533,5.61,14.812,7.48,23.76,9.68c1.09,2.85-2.846,0.67-1.76,3.52c4.724,2.61,11.852,2.81,14.08,7.92
		c-1.229,2.29-4.558-0.64-6.16-0.88L342.583,239.362z M280.1,208.56c3.87,0.534,6.903,1.904,7.926,5.28
		C284.212,213.254,280.785,212.278,280.1,208.56L280.1,208.56z M290.663,217.363c6.492,6.413,11.925,13.89,14.08,24.638
		c-7.968-4.35-12.267-17.06-14.08-24.63V217.363z M274.82,221.76c2.91,1.786,4.467,4.926,5.279,8.803
		c-3.265-1.104-8.96-6.273-5.279-8.802V221.76z M271.305,226.163c4.322,2.13,7.547,5.357,9.678,9.68
		C275.576,234.795,272.35,231.569,271.305,226.163z"/>
	<path d="M308.263,229.682c6.73,5.59,11.466,13.175,14.962,22C314.49,248.097,311.785,238.479,308.263,229.682z M282.743,236.722
		c3.854,6.705,7.142,13.98,7.04,24.64C285.741,254.846,282.586,247.442,282.743,236.722L282.743,236.722z M277.465,241.12
		c5.8-0.506,5.423,12.755,7.917,18.481c-5.476,0.186-4.68-13.5-7.917-18.479V241.12z M390.985,241.12
		c2.819,0.7,1.989,5.053,4.399,6.163c9.305-1.546,26.09,4.38,26.4-6.162c2.05,9.1,0.296,22,0.88,32.57h-11.44
		c6.811-3.16,12.057-7.891,10.561-19.36c-3.245-2.03-10.253-0.3-14.96-0.88c0.14,6.32,3.492,9.42,9.68,9.68
		c-4.705,2.04-13.189,0.311-19.36,0.88c4.007-2.149,9.471-2.85,8.804-9.68c-2.376-2.02-8.49-0.31-12.323-0.88
		c-3.556,10.32,1.927,19.189,10.56,20.24c-2.529,1.609-10.612,1.26-13.199,0V241.12L390.985,241.12z M131.382,248.16
		c-8.742,6.807-25.075,6.02-30.8,15.843c-2.037-3.536-0.303-10.843-0.88-15.842c1.945,0.71,1.146,4.14,3.518,4.4
		C114.543,252.011,122.02,240.591,131.382,248.16L131.382,248.16z M306.505,246.402c5.87,3.81,7.313,12.042,11.44,17.6
		C309.162,266.612,308.725,253.279,306.505,246.402z M289.785,249.922c3.91-0.96,5.79,7.688,6.16,13.2
		C292.015,260.599,292.155,254.002,289.785,249.922z M301.223,249.922c3.553,3.49,3.863,10.22,5.282,15.84
		C302.302,262.922,300.778,257.41,301.223,249.922z M296.823,255.202c3.237,0.573,2.394,5.231,3.52,7.92
		C296.653,262.999,296.748,259.092,296.823,255.202z M121.703,264.002c2.777-1.857,6.72,2.633,10.56,2.64
		c-9.18,6.953-26.41,5.856-31.682,16.721c-2.03-3.536-0.3-10.84-0.87-15.84c4.06,7.834,18.96-2.226,22-3.519L121.703,264.002z
		 M410.343,278.964c0.75-0.163,0.83,0.34,0.883,0.878c-11.59,70.55-59.626,116.96-131.125,127.601
		c17.891-4.615,33.04-9.607,47.53-16.721c41.96-20.588,68.391-58.735,80.09-110.88c1.25,0.076,2.5,0.145,2.641-0.878H410.343z
		 M114.663,279.842c15.56,68.625,57.25,111.128,125.84,126.721c-17.85,0.85-34.32-6.101-48.4-13.198
		c-41.614-20.985-74.32-59.342-80.96-112.644c1.84,0.38,2.33-0.6,3.52-0.87V279.842z M60.103,375.762
		c20.81,7.485,26.556-21.199,13.2-33.439c-10.24,2.666-16.65,9.168-26.4,12.319C51.437,362.247,52.497,373.028,60.103,375.762z
		 M61.863,320.322c0.644-1.566,1.6-0.126,2.64,0c2.964,17.922,25.977,36.223,22,57.2c-0.236,1.255-2.075,5.595-3.518,7.04
		c-16.396,16.393-33.216-17.097-37.843-28.16c-10.45,2.722-24.98,9.479-16.72,22.882c-6.855-10.45-12.44-22.175-17.6-34.323
		c5.64,11.521,16.1,6.521,30.802-0.87c11.75-5.91,28.4-10.76,20.238-23.76L61.863,320.322z M455.223,327.362
		c5.688,3.7,14.124,4.649,17.604,10.56c-16.197-4.99-37.166,11.776-34.322,27.28c0.658,3.59,3.37,6.482,6.16,7.04
		c15.358,3.08,23.867-32.813,43.117-32.561c18.844,0.25,16.852,27.551,7.043,38.724c-4.967,5.655-18.34,10.5-10.562,22.88
		c-8.439-3.88-15.784-8.858-24.642-12.322c19.16,2.61,44.14-11.557,41.37-29.92c-2.84-18.788-21.28-0.665-27.28,6.162
		c-8.83,10.057-13.109,18.882-29.04,17.6c-4.29-3.66-7.99-6.767-8.8-12.319c-2.41-16.693,14.14-28.511,22.01-36.96
		c0.23-3.157-2.64-3.227-2.64-6.16L455.223,327.362z M258.983,368.722c10.291-6.056,31.572-7.523,41.358,0
		c-0.88,3.5-5.3,0.846-7.91,0.88c0.25,3.766-4.689,2.347-4.399,6.16c-3.11-0.41-4.811-2.22-7.04-3.518
		c-1.05,3.766-3.17,1.882-7.03,1.76c-2.2,0.607,1.63,2.344,0.88,4.4c-5.3,0.897-6.819-1.971-9.67-3.523
		c-3.47-0.24-2.689,3.771-6.16,3.53c-5.2-4.1-11.64-2.45-16.72,1.76c-2.13-0.51-1.96-3.319-2.64-5.28
		c-1.28,0.49-4.55-1.02-4.4,0.881c-1.92-1.69,2.28-4.7,3.52-6.16c-0.94-2.28-5.22-1.23-6.16-3.521c6.18-8.33,22.95-5.45,26.4,2.641
		L258.983,368.722z M235.223,462.88c-1.546,10.777-5.184,19.46-7.922,29.043c0.87-15.846-3.06-32.866-18.47-35.2
		c-3.17,5.345-5.12,14.843-7.92,24.641c-5.06,17.7-12.9,33.04,9.68,35.2c-15.66-1.647-32.66-9.573-49.28-13.2
		c9.17-0.843,16.63,5.315,22.01-4.398c5.9-10.667,8.06-35.612,12.32-45.76c-17.47-6.61-28.92,7.225-33.44,19.36
		c-0.82-9.043,5.22-18.835,7.04-28.16c23.31,4.846,43.02,13.302,66,18.476L235.223,462.88z M79.46,107.36
		c-1.12-8.38-11.836-14.274-20.237-9.678c-6.284,3.437-8.244,13.01-12.32,17.6c6.764,4.67,12.68,10.2,20.237,14.08
		C71.436,122.354,80.887,117.984,79.46,107.36z M104.103,121.44c-5.173-21.025-34.428-1.87-35.198,9.684
		c7.524,5.964,14.765,12.217,23.757,16.717C96.618,139.401,107.122,133.711,104.103,121.44L104.103,121.44z M78.581,168.96
		c7.51-12.81-6.12-19.53-16.71-27.278c-10.58-7.74-21.36-20.26-29.92-7.04c5.85-7.99,22.25-39.014,33.44-45.76
		c15.05-9.067,25.64,5.095,17.6,20.24c4.42-4.35,25.11-14.714,29.04,0c6.08,22.734-29.72,44.893-33.44,59.84L78.581,168.96z
		 M282.751,215.602c9.02,6.24,12.95,17.56,16.72,29.042c-6.18-3.2-6.29-12.48-11.439-16.723c0.67,9.31,8.109,11.84,7.92,22.01
		c-9.43-4.94-10.37-18.37-16.72-26.4c2.79,2.03,3.079-3.1,3.52-7.92V215.602z M103.22,238.48c-2.132,0.51-1.954,3.324-2.64,5.283
		c-2.024-2.373-0.312-8.49-0.878-12.32c2.576,3.584,5.38,6.94,10.563,7.92C111.645,241.575,106.115,237.633,103.22,238.48z
		 M273.064,241.12c4.979,1.482,6.726,13.8,7.917,22.002c-5.37-4.598-5.11-14.833-7.91-22L273.064,241.12z M321.462,260.48
		c-6.802-3.755-9.676-11.442-12.317-19.36C313.929,246.896,320.499,250.888,321.462,260.48z M495.702,271.923
		c7.468,3.095,15.682,5.44,24.642,7.04c-6.797,2.885-16.66,2.7-25.52,3.521c-0.514,9.02,1.543,15.47,0.878,24.64
		c-4.396-6.16-7.34-13.776-10.558-21.117c-9.397,1.16-15.244,5.874-23.76,7.917c4.978-6.165,11.105-11.188,16.721-16.72
		c-2.894-8.55-9.547-13.336-14.08-20.24c5.884,1.456,14.569,7.716,21.119,11.44c5.771-5.962,9.849-13.618,14.961-20.242
		c0.765,3.24-3.04,16.83-4.403,23.77V271.923z M39.86,278.083c5.5,6.233,11.37,12.1,17.603,17.598
		c-6.546-0.199-14.987-6.12-22.88-7.92c-4.764,6.391-8.11,14.19-11.44,22.011c-1.687-6.391,0.384-16.62,0.88-23.761
		c-6.414-3.56-16.383-3.56-25.522-4.399c6.65-3.92,16.16-4.971,24.65-7.04c-1.09-8.88-3.37-16.57-4.4-25.521
		c5.25,6.49,9.21,14.26,14.08,21.12c7.14-3.72,14.76-6.95,21.12-11.44c-1.6,6.041-9.86,13.01-14.08,19.36L39.86,278.083z"/>
	<path d="M251.944,244.644c-0.334-3.6,3.165-7.93,0.88-10.563c-0.492,2.99-6.857,9.29-0.88,10.57V244.644z M234.342,221.761
		c-0.515,3.3-2.647,5,0,7.05c4.918-3.29,10.004-6.42,12.32-12.32c-3.705-1.33-6.51,5.79-12.32,5.28V221.761z M222.022,217.371
		c3.842-1.04,13.067-5.45,10.563-7.04C228.687,212.301,222.753,212.241,222.022,217.371L222.022,217.371z M207.942,203.291
		c12.25-1.81,27.55-1.71,37.842-0.88c-6.46-2.75-15.094-5.61-23.76-3.52c-0.476-3.12,3.114-2.16,2.64-5.28
		c-6.532-0.06-15.072,9.92-20.24,2.64c2.037-4.41,10.53-2.37,13.2-6.15c-6.593-3.14-12.526,1.4-18.48,1.76
		c1.567,5.18,7.17,6.32,8.797,11.44L207.942,203.291z M236.984,157.531c0.653-1.44,4.75,1.05,4.398,3.52
		c1.194-0.27,0.73-2.2,0.882-3.51c2.7,1.7,3.984,4.82,6.16,7.04c1.836-0.51-1.27-3.32-0.882-5.28c4.232,2.81,6.627,7.46,8.802,12.32
		c5.653-2.66,7.737,7.03,12.318,10.56c2.586-8.56,2.292-20,7.04-26.4c1.97,0.38,0.356,4.34,0.883,6.16
		c4.653-2.09,2.313-11.17,7.92-12.32c-0.065,3.75-1.474,6.16-0.88,10.57c1.964-3.9,2.663-9.07,4.4-13.2
		c2.689,2.76-1.08,6.51,0,10.57c2.632-2.06,2.333-7.05,6.155-7.92c-1.22,7.87-5.75,12.43-7.029,20.24c3.8,1.73,2.659-9.06,7.92-8.8
		c-1.561,4.6-3.511,8.81-5.28,13.2c3.03-0.2,3.84-2.62,4.4-5.28c1.29,12.44-8.73,21.19-14.96,29.05c1.239,3.16,7.02,1.78,8.81,4.4
		c-1.05,1.644-6.43,3.48-0.88,4.4c-3.16,2.53-6.811-1.96-11.44-0.88c0.94,4.63,4.23,6.91,4.4,12.32c-4.8-6.06-10.46,4.55-14.08,7.92
		c-1.57-2.536-1.22-6.99-2.64-9.686c-0.96-0.15-5.58,1.843-7.041-1.76c-1.03,1.31-2.21,2.484-3.52,3.52
		c0.98,3.54,4.85-0.36,8.8,0.875c-0.199,4.315,1.561,6.666,0.891,11.44c2.859-0.074,5.41-0.45,7.04-1.76
		c2.529,1.58,4.359,3.847,5.279,7.04c-7.79-2.78-7.239,6.397-12.31,8.8c-2.03,0.27-0.98-2.54-2.64-2.64
		c-1.39,1.837-1.82,4.63-1.752,7.92c3.638-1.64,4.11-6.45,9.68-6.16c-0.494,4.3,0.08,7.54,3.52,7.92
		c-0.449-3.07-0.399-6.65-1.76-8.8c1.8,0.707,6.195,9.78,6.16,15.84c-0.021,2.75-0.944,6.41-2.64,7.92
		c22.56,24.08,46.79,46.49,69.52,70.4c2.061-3.513-0.044-11.19,1.76-14.96c6.804,11.09,11.145,24.64,16.718,36.96
		c-13.171-4.723-24.705-11.08-37.841-15.84c3.536-2.035,10.841-0.304,15.838-0.88c-21.779-23.98-44.659-46.857-68.64-68.641
		c-2.893,2.105,3.618,10.73-1.763,12.323c5.926,4.7-0.641,15.1,4.405,20.24c0.149,3.09-2.979,2.896-3.521,5.279
		c0.271,1.197,2.2,0.73,3.521,0.885c0.413,3.35-0.379,5.489-2.641,6.16c0.86,1.189,2.96,1.14,3.521,2.638
		c-0.318,2.62-1.407,4.47-2.641,6.165c0.38,1.3,1.122-0.351,2.641,0c0.08,3.6-0.12,6.914-3.521,7.034
		c-0.149,1.909,3.12,0.399,4.393,0.88c0.946,4.47-1.624,5.42-3.521,7.04c0.09,1.7,3.28-1.36,4.4,0.88
		c0.335,3.57-2.4,4.05-3.521,6.16c0.862,2.47,2.343-1.28,3.521,0.88v10.56c-5.404,1.641-10.11,3.971-14.965,6.16
		c-3.541-0.85-5.384-3.41-7.92-5.28c1.326-3.069,0.15-8.649,5.28-7.909c-0.51-3.011-2.94-4.101-2.64-7.921
		c1.025-0.739,2.36-1.159,4.4-0.88c-5.426-8.72,1.235-16.89-0.88-28.16c1.425-0.25,1.521,0.83,2.641,0.881
		c0.776-2.83-2.9-1.21-2.641-3.521c2.11-10.237,0.5-15.81,0.88-26.399c-0.41-1.879,1.26-1.681,2.64-1.761
		c-4.87-1.149-1.08-9.069-0.88-7.92c-1.153-6.56-6.291-7.05-9.68-14.96c-2.25,1.561-1.973,5.65-3.52,7.92
		c-2.613-4.112,0.625-9.913,1.76-13.2c-0.91-2.8-3.486,4.56-4.4,1.76c0.07-3.82,4.366-6.863,1.76-10.561
		c-3.84,0.56-2.97,5.83-7.04,6.16v-6.16c-7.774,4.544-7.7,16.94-14.08,22.88c-2.37-1.04,0.005-4.59,0-6.159
		c-1.674-2.181-2.396,4-6.16,2.64c-0.3-6.46,4.4-7.92,6.16-12.32c-2.424-0.926-6.07,4.47-8.8,6.16c-1.97-3.464,3.79-6.737,6.16-8.8
		c-0.75-2.575-2.83,0.53-4.4,0c2.52-3.94,8.68-4.23,10.56-8.796c-0.793-2.41-3.08,1.56-4.4-0.88c1.266-3.723,5.28-4.7,8.8-6.16
		c-1.134-3.85-4.44-5.532-7.04-7.92c-1.8,1.136-0.93,4.94-3.513,5.28c-2.96,0.906-1.37-2.734-1.76-4.4
		c-5.368-0.38-4.15,5.82-4.398,10.56c-2.23-0.71-2.244-3.62-3.52-5.28c-3.07,3.97-1.155,12.926-2.64,18.48
		c-5.52-0.714-1.11-8.365-1.76-12.32c-3.05,4.28-1.84,12.828-5.28,16.72c-2.25-3.746,1.246-9.29,0-14.956
		c-2.93,2.93-1.61,10.12-3.52,14.08c-3.5-4.258,0.635-14.88,0-22c5.696-5.46,13.64-8.66,17.604-15.848
		c-5.31,0.11-9.625,8.464-16.72,9.68c1.03-6.01,6.79-7.29,9.68-11.44c-6.77,1.15-9.4,6.43-17.6,6.16
		c4.77-4.033,11.395-6.205,16.72-9.682c-6.06-2.69-11.67,6.92-18.48,3.52c4.514-3.11,11.06-4.19,16.72-6.16
		c-5.375-2.1-16.117,5.307-22,0c5.815-1.81,14.93-0.32,20.24-2.64c-4.67-4.72-14.977,3.33-21.12,0c3.844-2.9,10.8-2.69,15.84-4.393
		c-4.625-7.397-11.51-12.545-17.6-18.48c-12.006,7.895-31.667,3.28-32.56-12.32c13.6,16.54,37.87-8.46,21.12-22
		c12.543-2.356,22.473,15.87,14.96,28.16c2.396,7.863,9.87,10.24,20.24,7.92c-3.507-4.12-13.96-1.296-14.96-7.926
		c5.22,0.36,8.3,2.85,14.08,2.645c-2.03-3.25-6.383-4.178-8.8-7.04c10.55-0.576,19.04,8.524,29.04,11.435
		c2.197-0.6-1.63-2.34-0.88-4.4c4.31,0.68,6.26,3.718,9.683,5.28c1.36-2.85-4.78-5.75-5.28-9.68
		c10.41,3.09,11.15,15.84,22.88,17.607c-9.86-7.732-17.123-18.072-22.88-29.92c4.837,0.458,7.95,10.23,13.2,13.2
		c-2.84-10.65-12.235-14.75-14.96-25.52c4.24,1.34,5.324,5.83,8.8,7.926c1.165,0.43,0.057-4.03-0.876-4.396L236.984,157.531z
		 M454.34,401.29c6.625,4.815,12.73,10.15,17.605,16.72c-14.75,15.162-29.36,30.48-44.003,45.76
		c1.153-4.17,5.854-9.106,0.882-15.845c-2.849-3.853-26.33-28.229-31.681-29.035c-6.104-0.925-8.02,2.896-11.439,4.397
		c12.824-16.51,29.062-29.604,42.238-45.76c5.35,5.798,12.84,9.457,16.723,16.72c-15.394-12.463-34.08,0.287-41.36,11.439
		c5.794,7.112,12.983,12.827,19.36,19.36c11.38-3.698,5.733-19.837,0.88-26.4c9.042,9.145,19.915,16.461,27.28,27.28
		c-4.704-5.731-21.55-8.257-25.521,0c4.721,7.595,11.74,12.898,18.48,18.48c12.745-6.287,21.692-28.273,10.556-43.12L454.34,401.29z
		 M50.42,415.36c8.786,12.159,18.502,0.321,29.04-8.801c9.114-7.88,24.982-15.663,14.964-28.156
		c8.43,8.875,16.968,17.646,23.76,28.156c-8.413-11.842-19.207-0.384-29.92,8.801c-8.725,7.479-23.716,16.628-14.082,27.279
		c-7.702-5.788-17.08-17.529-23.76-27.279H50.42z M256.344,390.723c2.26,2.438-8.21,0.45-7.042,7.92
		c1.248,7.966,25.283,3.65,26.4,14.963c0.514,5.202-3.368,10.334-14.962,9.678c2.336-1.78,9.09-0.016,9.685-5.28
		c1.135-10.037-22.91-3.267-25.522-14.96C243.648,397.417,246.633,392.417,256.344,390.723L256.344,390.723z M258.984,392.48
		c3.454-3.047,12.63,6.512,14.96-0.878c2.029,2.66,0.31,9.075,0.877,13.2c-2.98-6.406-7.431-11.336-15.83-12.322H258.984z"/>
	<path d="M248.423,421.52c-2.008-1.216-0.326-6.125-0.88-8.796c2.76,3.987,5.102,8.386,11.44,8.798c-0.48,4.55-8.742-5.881-10.56,0
		V421.52z M143.703,472.564c-4.114,4.01-7.435,6.14-11.44,7.039c-43.824,9.839-55.316-69.465-2.64-62.481
		c13.67,1.813,19.48,11.733,24.64,23.76c4.163,0.351,7.344-0.28,10.56-0.882c-5.367,8.128-9,17.986-16.72,23.762
		c9.806-16.66,0.81-49.017-19.36-42.239c-10.27,3.449-30.23,25.622-27.28,41.359C104.431,478.719,128.511,483.42,143.703,472.564z
		 M342.583,447.92c4.64,7.098,8.398,15.066,12.318,22.883c15.47-2.922,37.47-20.453,18.489-34.319
		c-15.149-1.076-21.35,6.808-30.8,11.437H342.583z M291.543,461.12c7.72-3.99,18.286-0.96,28.16-3.519
		c16.189-4.197,37.49-24.666,55.439-27.279c9.37-1.363,18.164,3.797,18.48,11.438c0.52,12.57-14.14,17.23-22.878,22.882
		c5.655,5.237,11.981-0.604,17.597,0c9.445,1.021,16.816,14.867,29.043,7.04c-1.252,4.626-12.464,6.896-17.602,10.561
		c-11.067-4.773-21.587-10.095-31.68-15.838c-4.193,1.67-7.681,4.054-11.44,6.16c2.543,8.602,6.482,15.81,12.318,21.115
		c5.21,0.811,7.3-1.502,11.439-1.758c-10.49,6.521-21.729,12.296-33.439,17.6c12.54-5.834,4.02-21.212-2.631-33.439
		c-4.14-7.623-9.1-18.257-14.079-19.36c-8.391-1.859-12.131,4.048-19.351,6.16c-8.08,14.857,6.32,37.668-3.52,50.163
		c-9.12,11.585-44.511,11.793-51.041-0.88c-7.74-15.034,2.42-37.82-8.8-45.76c-3.23-0.29-7.79,0.747-9.67-0.882
		c12.22-3.04,27.79-2.714,41.36-4.403c-6.19,3.692-13.74,1.383-14.95,9.683c-0.939,6.396,1.26,32.483,3.521,38.721
		c5.399,14.907,38.319,12.75,41.359-4.4c1.54-8.706-0.149-35.304-5.279-40.48c-2.87-2.894-4.851-2.319-12.32-3.522H291.543z"/>
</g>
</svg>
