<svg xmlns="http://www.w3.org/2000/svg" width="524" height="524" viewBox="0 0 524 524">
  <path d="M297.706 0c20.54 5.563 40.853 11.358 61.6 16.722-1.313 8.953-4.138 16.396-6.164 24.64.943-22.647-12.518-30.894-31.68-33.44-3.068 7.196-4.955 15.576-7.04 23.76 8.382 7.462 19.266-2.167 21.12-9.68.23 10.207-5.404 22.162-7.92 32.56-.687-10.462-3.05-19.247-13.2-20.242-4.922 9.35-11.855 31.1 5.282 31.68-11.945-.086-24.835-6.842-37.84-8.797.32-3.352 7.995 1.15 10.56-1.76 4.405-3.168 6.266-13.026 8.8-22.002C305.36 18.8 311.538 4.56 297.706 0zm-88 32.56c-3.488 2.68-7.216 5.108-9.686 8.802-3.952 21.32 22.374 23.38 32.564 13.2-7.333-7.628-14.37-15.55-22.88-22.002h.002zm1.76-23.758c-1.413 7.314 6.88 10.542 10.557 14.96 14.62-7.91-7.625-30.177-10.557-14.96zm11.437 16.72c6.245 5.78 12.216 11.833 19.36 16.72 7.31-5.393 9.972-24.777-7.04-21.122 8.313-2.832 18.578-3.716 28.16-5.28-11.305 4.243-13.343 17.75-19.36 27.28 5.448 10.34 27.31 9.68 22.878-8.8 7.75 17.607-17.48 32.27-31.67 20.24-9.33 8.11-32.06 15.68-45.76 6.16-7.07-17.618 10.7-24.087 21.12-29.92-8.12-10.353-4.92-32.94 14.08-29.04 9.36 5.22 7.53 19.886-1.76 23.76v.002zm149.6-2.642c12.588 5.89 22.213 14.75 34.32 21.123-22.19-12.944-32.15 29.318-43.12 40.478 9.123 13.35 36.13 14.91 45.76.88-.56 7.37-9.4 14.06-12.32 22-19.5-11-38.43-22.58-55.44-36.08 11.89 9.83 18.64-4.8 25.52-15.84 7.608-12.2 19.52-23.81 5.28-32.56zm-212.96 52.802c-.584-19.227-26.538-12.935-36.078-2.643 4.71 8.78 9.1 17.88 16.717 23.76 7.41-6.65 19.742-8.55 19.36-21.12zm-18.48-21.12c2.263-20.736-26.056-15.81-32.56-2.64 3.76 7.382 9.12 13.173 13.2 20.24 7.375-5.277 18.304-7.933 19.36-17.6zm2.64 4.397c19.032-10.34 35.842 5.46 21.12 22-10.598 11.9-35.68 22.34-44.88 31.68-.334-3.49 4.627-4.29 5.277-8.8.962-6.64-21.32-40.99-28.157-42.24-5.437-1-7.615 3.18-10.562 2.64 13.71-4.67 35.74-35.59 57.21-30.8 11.99 2.67 6.59 18.16 0 25.51v.01zm30.8 51.04c-56.317 33.78-102.45 104-77.44 195.36 12.77 46.64 44.447 84.83 84.48 106.47 44.34 23.97 106.745 25.94 154.88 2.64 60.56-29.32 115.266-107.79 89.762-201.52-11.475-42.17-31.753-67.43-60.722-90.64-26.814-21.49-70.13-38.67-117.04-35.2-29.445 2.17-53.875 10.85-73.92 22.88zm70.4-29.04c69.625-5.72 119.45 22.77 151.36 58.96 23.948 27.16 49.145 75.2 44.88 133.76-4.532 62.31-37.734 104.32-80.08 132.88-45.39 30.6-108.79 41.2-167.2 18.48-51.333-19.97-87.23-59.91-103.84-109.12-9.49-28.12-11.47-61.02-5.28-92.4 6.185-31.35 18.61-54.86 32.56-73.04 19.12-24.92 49.98-49 86.243-60.72 11.98-3.88 24.443-7.41 41.357-8.8zm224.4 25.52c-5.36-31.59-63.623-2.02-53.68 24.64 13.104 27.56 57.62-1.43 53.68-24.65v.01zm-36.08-22c31.333-4.89 55.734 36.28 34.32 58.96-29.38 31.12-79.203-25-49.28-52.8 3.686-3.43 7.703-5.03 14.96-6.16z"/>
  <path d="M238.743 97.683c19.172-4.8 22.21 14.16 33.44 20.24 1.697-6.99 2.694-20.88-6.16-20.24 2.95-2.036 9.667-.31 14.077-.88-2.08 1.72-4.86 2.755-6.15 5.28v24.64c-3.55.99-8.97-7.212-13.2-11.44-4.87-4.876-10.61-9.403-14.07-14.08-1.1 8.732-4.02 26.893 7.04 26.397-3.24 2.036-10.25.31-14.96.882 1.02-2.79 5.46-2.168 6.16-5.28v-22.88c-.8-2.133-3.53-2.332-6.16-2.64h-.017zm171.6 143.437c-7.036.555-4.715-8.732-5.276-11.438-13.225-63.443-58.63-104.605-124.084-117.92-1.496.323-1.657-.687-1.76-1.76.714-.168.88-.885 1.76-.88 56.074 8.326 94.542 38.057 116.162 82.722 6.854 14.16 15.704 30.704 13.2 49.277h-.002z"/>
  <path d="M239.623 110.002c-9.3 4.583-19.294 5.738-28.158 8.8-50.616 17.48-83.39 59.145-95.92 116.16-8.008-2.63-1.123-15.757.878-22 16.973-52.878 62.99-94.227 123.2-102.96zm251.682 22.878c5.206 7.997 7.06 19.343 10.56 29.042-3.196-.613-2.012-5.61-6.16-5.28-13.176 6.18-23.113 15.606-33.44 24.64 17.592.457 42.28 9.265 40.48-14.082 4.59 9.194 6.938 20.64 10.56 30.803-3.276-1.71-2.613-7.357-7.04-7.92-13.047 6.316-22.324 16.396-33.436 24.64 12.73.728 29.97 4.44 41.35.88.6-2.082 2.03-7.873 0-9.68 4.18 1.99 5.78 14.157 7.91 21.118-11.606-14.2-43.59-8.03-66-11.43 6.904-11.6 25.393-19.17 35.2-30.8-15.43-1.29-31.587-1.86-46.64-3.52 5.35-7.38 14.782-12.67 24.64-20.24 8.65-6.64 24.722-15.15 22-28.16v-.01zM19.623 159.282c6.864 2.23 14.51 3.676 21.12 6.16-19.818.127-27.838 12.056-29.92 29.92 7.186 4.256 16.853 6.028 26.402 7.92 6.654-12.227-6.33-18.48-12.323-23.76 11.57 4.856 26.854 6 36.96 12.322-11.414-2.79-22.222 1.53-22.88 12.32 8.04 2.816 16.642 5.065 25.52 7.04 9.31-16.577 2.237-37.9-11.44-44.004 7.824 1.856 14.84 4.522 22.88 6.16-5.346 21.643-9.93 44.044-18.48 62.48 5.633-14.586-8.624-15.83-23.76-20.24-15.047-4.383-27.044-10.196-29.92 4.4 2.124-19.875 10.772-40.854 15.84-60.718zm322.96 80.08c.498 1.83 2.515 2.842.88 4.4-20.173-4.464-32.556-16.722-44.877-29.04 2.62 7.06 6.466 12.893 8.797 20.24-7.8-8.15-19.184-22.992-15.84-31.68.69-3.917-4.72-1.733-4.398-5.28 8.95-.775 18.23 5.143 22-2.64-4.83 1.392-7.492 3.49-12.32.88-.643-2.4 1.748-1.77 1.763-3.52-4.777-.106-8.638 4.49-13.204 1.76 15.232-5.89 23.013-19.228 36.08-27.282-2.044 3.234-4.724 5.84-7.04 8.802 3.73-.1 8.305-6.94 12.32-9.68 1.586 2.793-4.232 5.712-5.28 8.8 2.477.105 8.286-4.02 11.44-6.16 1.735 3.233-6.043 4.494-6.16 8.8 3.01-.51 4.098-2.944 7.92-2.64-2.872 5.634-11.454 5.56-14.958 10.56 4.604.206 5.727-3.075 10.56-2.64-1.063 6.56-10.6 4.652-13.2 9.68 2.05.84 7.104-2.85 11.44-2.64-3.073 6.9-13.96 5.984-20.24 9.68 7.606 2.607 15.056-2.538 23.76-1.76-3.624 3.413-11.114 2.963-16.72 4.4 10.1 3.635 16.83-3.7 27.28-2.64-3.454 4.467-12.95 2.89-17.602 6.16 6.972 2.752 16.737-3.65 24.64 0-3.263 4.362-16.07-.818-19.36 3.52 3.827 2.038 11.435.303 16.72.88-3.45 4.465-16.61-.776-20.237 3.52 4.164 3.17 16.97-2.305 18.48 3.52-5.71-2.064-11.115.303-17.603 0-2.374.79 1.858 2.124 2.642 2.637-5.69 3.03-10.445-2.45-17.6-.88 5.533 5.61 14.812 7.48 23.76 9.68 1.09 2.85-2.846.67-1.76 3.52 4.724 2.61 11.852 2.81 14.08 7.92-1.23 2.29-4.558-.64-6.16-.88h-.003zM280.1 208.56c3.87.534 6.903 1.904 7.926 5.28-3.814-.586-7.24-1.562-7.926-5.28zm10.563 8.803c6.492 6.413 11.925 13.89 14.08 24.638-7.968-4.35-12.267-17.06-14.08-24.63zm-15.843 4.397c2.91 1.786 4.467 4.926 5.28 8.803-3.266-1.104-8.96-6.273-5.28-8.802zm-3.515 4.403c4.322 2.13 7.547 5.357 9.678 9.68-5.407-1.048-8.633-4.274-9.678-9.68z"/>
  <path d="M308.263 229.682c6.73 5.59 11.466 13.175 14.962 22-8.735-3.585-11.44-13.203-14.962-22zm-25.52 7.04c3.854 6.705 7.142 13.98 7.04 24.64-4.042-6.516-7.197-13.92-7.04-24.64zm-5.278 4.398c5.8-.506 5.423 12.755 7.917 18.48-5.476.187-4.68-13.5-7.917-18.478v-.002zm113.52 0c2.82.7 1.99 5.053 4.4 6.163 9.304-1.546 26.09 4.38 26.4-6.162 2.05 9.1.295 22 .88 32.57h-11.44c6.81-3.16 12.056-7.89 10.56-19.36-3.245-2.03-10.253-.3-14.96-.88.14 6.32 3.492 9.42 9.68 9.68-4.705 2.04-13.19.32-19.36.88 4.007-2.14 9.47-2.85 8.804-9.68-2.38-2.02-8.49-.31-12.33-.88-3.56 10.32 1.92 19.19 10.56 20.24-2.53 1.61-10.61 1.26-13.2 0v-32.57zm-259.603 7.04c-8.742 6.807-25.075 6.02-30.8 15.843-2.037-3.536-.303-10.843-.88-15.842 1.945.71 1.146 4.14 3.518 4.4 11.323-.55 18.8-11.97 28.162-4.4zm175.123-1.758c5.87 3.81 7.313 12.042 11.44 17.6-8.783 2.61-9.22-10.723-11.44-17.6zm-16.72 3.52c3.91-.96 5.79 7.688 6.16 13.2-3.93-2.523-3.79-9.12-6.16-13.2zm11.438 0c3.553 3.49 3.863 10.22 5.282 15.84-4.203-2.84-5.727-8.352-5.282-15.84zm-4.4 5.28c3.237.573 2.394 5.23 3.52 7.92-3.69-.123-3.595-4.03-3.52-7.92zm-175.12 8.8c2.777-1.857 6.72 2.633 10.56 2.64-9.18 6.953-26.41 5.856-31.682 16.72-2.03-3.535-.3-10.84-.87-15.84 4.06 7.835 18.96-2.225 22-3.518v-.002zm288.64 14.962c.75-.163.83.34.883.878-11.59 70.55-59.626 116.96-131.125 127.6 17.9-4.614 33.04-9.606 47.53-16.72 41.96-20.588 68.4-58.735 80.09-110.88 1.25.076 2.5.145 2.65-.878h-.02zm-295.68.878c15.56 68.625 57.25 111.128 125.84 126.72-17.85.85-34.32-6.1-48.4-13.197-41.614-20.985-74.32-59.342-80.96-112.644 1.84.38 2.33-.6 3.52-.87zm-54.56 95.92c20.81 7.485 26.556-21.2 13.2-33.44-10.24 2.667-16.65 9.17-26.4 12.32 4.534 7.605 5.594 18.386 13.2 21.12zm1.76-55.44c.644-1.566 1.6-.126 2.64 0 2.964 17.922 25.977 36.223 22 57.2-.236 1.255-2.075 5.595-3.518 7.04-16.396 16.393-33.216-17.097-37.843-28.16-10.45 2.722-24.98 9.48-16.72 22.882-6.855-10.45-12.44-22.175-17.6-34.323 5.64 11.53 16.1 6.53 30.802-.87 11.75-5.91 28.4-10.76 20.238-23.76zm393.36 7.04c5.688 3.7 14.124 4.65 17.604 10.56-16.197-4.99-37.166 11.776-34.322 27.28.658 3.59 3.37 6.482 6.16 7.04 15.358 3.08 23.867-32.813 43.117-32.56 18.844.25 16.852 27.55 7.043 38.723-4.967 5.655-18.34 10.5-10.562 22.88-8.44-3.88-15.784-8.858-24.642-12.322 19.16 2.61 44.14-11.557 41.37-29.92-2.84-18.788-21.28-.665-27.28 6.162-8.83 10.057-13.1 18.882-29.04 17.6-4.29-3.66-7.99-6.767-8.8-12.32-2.41-16.692 14.14-28.51 22.01-36.96.23-3.156-2.64-3.226-2.64-6.16l-.01-.003zm-196.24 41.36c10.29-6.056 31.572-7.523 41.358 0-.88 3.5-5.3.846-7.91.88.25 3.766-4.68 2.347-4.39 6.16-3.11-.41-4.81-2.22-7.04-3.518-1.05 3.766-3.17 1.882-7.03 1.76-2.2.607 1.63 2.344.88 4.4-5.3.897-6.82-1.97-9.67-3.523-3.47-.24-2.69 3.78-6.16 3.53-5.2-4.1-11.64-2.45-16.72 1.76-2.13-.51-1.96-3.31-2.64-5.28-1.28.49-4.55-1.02-4.4.89-1.92-1.69 2.28-4.7 3.52-6.16-.94-2.28-5.22-1.23-6.16-3.52 6.18-8.33 22.95-5.45 26.4 2.64l-.03-.01zm-23.76 94.158c-1.546 10.777-5.184 19.46-7.922 29.043.87-15.846-3.06-32.866-18.47-35.2-3.17 5.345-5.12 14.843-7.92 24.64-5.06 17.7-12.9 33.04 9.68 35.2-15.66-1.646-32.66-9.572-49.28-13.2 9.17-.842 16.63 5.316 22.01-4.397 5.9-10.667 8.06-35.612 12.32-45.76-17.47-6.61-28.92 7.225-33.44 19.36-.82-9.043 5.22-18.835 7.04-28.16 23.31 4.846 43.02 13.302 66 18.476l-.01-.002zM79.46 107.36c-1.12-8.38-11.836-14.274-20.237-9.678-6.284 3.437-8.244 13.01-12.32 17.6 6.764 4.67 12.68 10.2 20.237 14.08 4.296-7.008 13.747-11.378 12.32-22.002zm24.643 14.08c-5.173-21.025-34.428-1.87-35.198 9.684 7.524 5.964 14.765 12.217 23.757 16.717 3.956-8.44 14.46-14.13 11.44-26.4zM78.58 168.96c7.51-12.81-6.12-19.53-16.71-27.278-10.58-7.74-21.36-20.26-29.92-7.04 5.85-7.99 22.25-39.014 33.44-45.76 15.05-9.067 25.64 5.095 17.6 20.24 4.42-4.35 25.11-14.714 29.04 0 6.08 22.734-29.72 44.893-33.44 59.84l-.01-.002zm204.17 46.642c9.02 6.24 12.95 17.56 16.72 29.042-6.18-3.2-6.29-12.48-11.438-16.723.67 9.31 8.11 11.84 7.92 22.01-9.43-4.94-10.37-18.37-16.72-26.4 2.79 2.03 3.08-3.1 3.52-7.92zM103.22 238.48c-2.132.51-1.954 3.324-2.64 5.283-2.024-2.373-.312-8.49-.878-12.32 2.576 3.584 5.38 6.94 10.563 7.92 1.38 2.212-4.15-1.73-7.045-.883zm169.844 2.64c4.98 1.482 6.726 13.8 7.917 22.002-5.37-4.598-5.11-14.833-7.91-22v-.002zm48.398 19.36c-6.802-3.755-9.676-11.442-12.317-19.36 4.784 5.776 11.354 9.768 12.317 19.36zm174.24 11.443c7.468 3.095 15.682 5.44 24.642 7.04-6.797 2.885-16.66 2.7-25.52 3.52-.514 9.02 1.543 15.47.878 24.64-4.396-6.16-7.34-13.775-10.558-21.116-9.397 1.16-15.244 5.874-23.76 7.917 4.978-6.165 11.105-11.188 16.72-16.72-2.893-8.55-9.546-13.336-14.08-20.24 5.885 1.456 14.57 7.716 21.12 11.44 5.77-5.962 9.85-13.618 14.96-20.242.766 3.24-3.04 16.83-4.402 23.77v-.01zm-455.842 6.16c5.5 6.233 11.37 12.1 17.603 17.598-6.546-.19-14.987-6.12-22.88-7.92-4.764 6.4-8.11 14.19-11.44 22.02-1.687-6.39.384-16.62.88-23.76-6.414-3.56-16.383-3.56-25.522-4.4 6.65-3.92 16.16-4.97 24.65-7.04-1.09-8.88-3.37-16.57-4.4-25.52 5.25 6.49 9.21 14.26 14.08 21.12 7.14-3.72 14.76-6.95 21.12-11.44-1.6 6.04-9.86 13.01-14.08 19.36l-.01-.01z"/>
  <path d="M251.944 244.644c-.334-3.6 3.165-7.93.88-10.563-.492 2.99-6.857 9.29-.88 10.57zm-17.602-22.883c-.515 3.3-2.647 5 0 7.05 4.918-3.29 10.004-6.42 12.32-12.32-3.705-1.33-6.51 5.79-12.32 5.28v-.01zm-12.32-4.39c3.842-1.04 13.067-5.45 10.563-7.04-3.898 1.97-9.832 1.91-10.563 7.04zm-14.08-14.08c12.25-1.81 27.55-1.71 37.842-.88-6.46-2.75-15.094-5.61-23.76-3.52-.476-3.12 3.114-2.16 2.64-5.28-6.532-.06-15.072 9.92-20.24 2.64 2.037-4.41 10.53-2.37 13.2-6.15-6.593-3.14-12.526 1.4-18.48 1.76 1.567 5.18 7.17 6.32 8.797 11.44l.01-.01zm29.042-45.76c.653-1.44 4.75 1.05 4.398 3.52 1.194-.27.73-2.2.882-3.51 2.7 1.7 3.984 4.82 6.16 7.04 1.836-.51-1.27-3.32-.882-5.28 4.232 2.81 6.627 7.46 8.802 12.32 5.653-2.66 7.737 7.03 12.318 10.56 2.586-8.56 2.292-20 7.04-26.4 1.97.38.356 4.34.883 6.16 4.653-2.09 2.313-11.17 7.92-12.32-.065 3.75-1.474 6.16-.88 10.57 1.964-3.9 2.663-9.07 4.4-13.2 2.69 2.76-1.08 6.51 0 10.57 2.632-2.06 2.333-7.05 6.155-7.92-1.22 7.87-5.75 12.43-7.03 20.24 3.8 1.73 2.66-9.06 7.92-8.8-1.56 4.6-3.51 8.81-5.28 13.2 3.03-.2 3.84-2.62 4.4-5.28 1.29 12.44-8.73 21.19-14.96 29.05 1.24 3.16 7.02 1.78 8.81 4.4-1.05 1.65-6.43 3.48-.88 4.4-3.16 2.53-6.81-1.96-11.44-.88.94 4.63 4.23 6.91 4.4 12.32-4.8-6.06-10.46 4.55-14.08 7.92-1.57-2.53-1.22-6.99-2.64-9.68-.96-.15-5.58 1.85-7.04-1.76-1.03 1.31-2.21 2.49-3.52 3.52.98 3.54 4.85-.36 8.8.88-.2 4.32 1.56 6.67.89 11.44 2.86-.07 5.41-.45 7.04-1.76 2.53 1.58 4.36 3.85 5.28 7.04-7.79-2.78-7.24 6.4-12.31 8.8-2.03.27-.98-2.54-2.64-2.64-1.39 1.84-1.82 4.63-1.752 7.92 3.638-1.64 4.11-6.45 9.68-6.16-.494 4.3.08 7.54 3.52 7.92-.45-3.07-.4-6.65-1.76-8.8 1.8.71 6.195 9.78 6.16 15.84-.02 2.75-.944 6.41-2.64 7.92 22.56 24.08 46.79 46.49 69.52 70.4 2.06-3.51-.044-11.19 1.76-14.96 6.804 11.09 11.145 24.64 16.718 36.96-13.17-4.72-24.705-11.08-37.84-15.84 3.535-2.03 10.84-.3 15.837-.88-21.78-23.98-44.66-46.85-68.64-68.64-2.893 2.11 3.618 10.73-1.763 12.33 5.926 4.7-.64 15.1 4.405 20.24.15 3.09-2.98 2.896-3.52 5.28.27 1.196 2.2.73 3.52.884.413 3.35-.38 5.49-2.64 6.16.86 1.19 2.96 1.14 3.52 2.638-.318 2.62-1.407 4.47-2.64 6.168.38 1.3 1.12-.352 2.64 0 .08 3.6-.12 6.913-3.52 7.033-.15 1.91 3.12.4 4.392.88.946 4.47-1.624 5.42-3.52 7.04.09 1.7 3.28-1.36 4.4.88.334 3.57-2.4 4.05-3.522 6.16.862 2.47 2.343-1.28 3.52.88v10.56c-5.403 1.64-10.11 3.97-14.964 6.16-3.54-.85-5.38-3.41-7.92-5.28 1.33-3.07.15-8.65 5.28-7.91-.51-3.01-2.94-4.1-2.64-7.92 1.03-.74 2.36-1.16 4.4-.88-5.42-8.72 1.24-16.89-.88-28.16 1.43-.25 1.53.83 2.65.88.78-2.83-2.9-1.21-2.64-3.52 2.11-10.237.5-15.81.88-26.4-.41-1.88 1.26-1.68 2.64-1.76-4.87-1.15-1.08-9.07-.88-7.92-1.15-6.56-6.29-7.05-9.68-14.96-2.25 1.56-1.97 5.65-3.52 7.92-2.61-4.112.63-9.913 1.76-13.2-.91-2.8-3.48 4.56-4.4 1.76.07-3.82 4.37-6.863 1.76-10.56-3.84.56-2.97 5.83-7.04 6.16v-6.16c-7.77 4.543-7.7 16.94-14.08 22.88-2.37-1.04.01-4.59 0-6.16-1.67-2.18-2.39 4-6.16 2.64-.3-6.46 4.4-7.92 6.16-12.32-2.42-.926-6.07 4.47-8.8 6.16-1.97-3.464 3.79-6.737 6.16-8.8-.75-2.575-2.83.53-4.4 0 2.52-3.94 8.68-4.23 10.56-8.796-.79-2.41-3.08 1.56-4.4-.88 1.27-3.725 5.28-4.7 8.8-6.16-1.13-3.85-4.44-5.534-7.04-7.92-1.8 1.134-.93 4.94-3.51 5.28-2.96.904-1.37-2.736-1.76-4.4-5.37-.38-4.15 5.82-4.4 10.56-2.23-.71-2.24-3.62-3.52-5.28-3.07 3.97-1.15 12.924-2.64 18.48-5.52-.716-1.11-8.367-1.76-12.32-3.05 4.28-1.84 12.826-5.28 16.72-2.25-3.75 1.25-9.29 0-14.96-2.93 2.93-1.61 10.12-3.52 14.08-3.5-4.254.64-14.88 0-22 5.7-5.46 13.64-8.66 17.61-15.844-5.31.11-9.624 8.462-16.72 9.68 1.03-6.01 6.79-7.29 9.68-11.44-6.77 1.15-9.4 6.43-17.6 6.16 4.77-4.035 11.396-6.207 16.72-9.684-6.06-2.69-11.67 6.92-18.48 3.52 4.515-3.11 11.06-4.19 16.72-6.16-5.374-2.1-16.116 5.307-22 0 5.816-1.81 14.93-.32 20.24-2.64-4.67-4.72-14.976 3.33-21.12 0 3.845-2.9 10.8-2.69 15.84-4.393-4.624-7.396-11.51-12.544-17.6-18.48-12.005 7.896-31.666 3.28-32.56-12.32 13.6 16.54 37.87-8.46 21.12-22 12.544-2.355 22.474 15.87 14.96 28.16 2.397 7.864 9.87 10.24 20.24 7.92-3.506-4.12-13.96-1.295-14.96-7.925 5.22.36 8.3 2.85 14.08 2.642-2.03-3.25-6.382-4.18-8.8-7.04 10.55-.576 19.04 8.524 29.04 11.435 2.198-.6-1.63-2.34-.88-4.4 4.31.68 6.26 3.715 9.684 5.28 1.36-2.85-4.78-5.75-5.28-9.68 10.41 3.09 11.15 15.84 22.88 17.604-9.86-7.735-17.123-18.075-22.88-29.92 4.837.455 7.95 10.23 13.2 13.2-2.84-10.65-12.235-14.75-14.96-25.52 4.24 1.34 5.324 5.83 8.8 7.923 1.165.43.057-4.03-.876-4.396l-.046-.06zM454.34 401.29c6.625 4.815 12.73 10.15 17.605 16.72-14.75 15.162-29.36 30.48-44.003 45.76 1.153-4.17 5.854-9.106.882-15.845-2.85-3.853-26.33-28.23-31.68-29.035-6.105-.925-8.02 2.896-11.44 4.397 12.824-16.51 29.062-29.604 42.238-45.76 5.35 5.798 12.84 9.457 16.723 16.72-15.394-12.463-34.08.287-41.36 11.44 5.794 7.11 12.983 12.826 19.36 19.36 11.38-3.7 5.733-19.838.88-26.4 9.042 9.144 19.915 16.46 27.28 27.28-4.704-5.732-21.55-8.258-25.52 0 4.72 7.594 11.74 12.897 18.48 18.48 12.744-6.288 21.69-28.274 10.555-43.12v.003zM50.42 415.36c8.786 12.16 18.502.32 29.04-8.8 9.114-7.88 24.982-15.664 14.964-28.157 8.43 8.875 16.968 17.646 23.76 28.156-8.413-11.85-19.207-.39-29.92 8.8-8.725 7.48-23.716 16.62-14.082 27.28-7.702-5.79-17.08-17.53-23.76-27.28h-.002zm205.924-24.637c2.26 2.438-8.21.45-7.042 7.92 1.248 7.966 25.283 3.65 26.4 14.963.514 5.202-3.368 10.334-14.962 9.678 2.336-1.78 9.09-.016 9.685-5.28 1.135-10.037-22.91-3.267-25.522-14.96-1.255-5.627 1.73-10.627 11.44-12.32zm2.64 1.757c3.454-3.047 12.63 6.512 14.96-.878 2.03 2.66.31 9.075.877 13.2-2.98-6.406-7.43-11.336-15.83-12.322z"/>
  <path d="M248.423 421.52c-2.008-1.216-.326-6.125-.88-8.796 2.76 3.987 5.102 8.386 11.44 8.798-.48 4.55-8.742-5.88-10.56 0v-.002zm-104.72 51.044c-4.114 4.01-7.435 6.14-11.44 7.04-43.824 9.838-55.316-69.466-2.64-62.482 13.67 1.813 19.48 11.733 24.64 23.76 4.163.35 7.344-.28 10.56-.882-5.367 8.128-9 17.986-16.72 23.762 9.806-16.66.81-49.017-19.36-42.24-10.27 3.45-30.23 25.623-27.28 41.36 2.968 15.837 27.048 20.538 42.24 9.682zm198.88-24.644c4.64 7.098 8.398 15.066 12.318 22.883 15.47-2.922 37.47-20.453 18.49-34.32-15.15-1.075-21.35 6.81-30.8 11.438zm-51.04 13.2c7.72-3.99 18.286-.96 28.16-3.52 16.19-4.196 37.49-24.665 55.44-27.278 9.37-1.363 18.163 3.797 18.48 11.438.52 12.57-14.14 17.23-22.88 22.882 5.656 5.237 11.982-.604 17.598 0 9.45 1.02 16.82 14.867 29.05 7.04-1.25 4.626-12.46 6.896-17.6 10.56-11.06-4.772-21.58-10.094-31.68-15.837-4.19 1.67-7.68 4.054-11.44 6.16 2.55 8.602 6.48 15.81 12.32 21.115 5.21.81 7.3-1.502 11.44-1.758-10.49 6.52-21.73 12.296-33.44 17.6 12.54-5.834 4.02-21.212-2.63-33.44-4.14-7.622-9.1-18.256-14.08-19.36-8.39-1.858-12.13 4.05-19.35 6.16-8.08 14.858 6.32 37.67-3.52 50.164-9.12 11.585-44.51 11.793-51.04-.88-7.74-15.034 2.42-37.82-8.8-45.76-3.23-.29-7.79.747-9.67-.882 12.22-3.04 27.79-2.714 41.36-4.403-6.19 3.7-13.74 1.39-14.95 9.69-.94 6.4 1.26 32.49 3.52 38.72 5.4 14.91 38.32 12.75 41.36-4.4 1.54-8.7-.15-35.3-5.28-40.48-2.87-2.89-4.85-2.32-12.32-3.52h-.03z"/>
</svg>